<svg xmlns="http://www.w3.org/2000/svg" version="1.1" xmlns:xlink="http://www.w3.org/1999/xlink" xmlns:svgjs="http://svgjs.dev/svgjs" width="1500" height="1500" viewBox="0 0 1500 1500"><rect width="1500" height="1500" fill="#ee3e38"></rect><g transform="matrix(0.6666666666666666,0,0,0.6666666666666666,249.39393939393938,87.90936292680135)"><svg viewBox="0 0 396 410" data-background-color="#ee3e38" preserveAspectRatio="xMidYMid meet" height="1553" width="1500" xmlns="http://www.w3.org/2000/svg" xmlns:xlink="http://www.w3.org/1999/xlink"><g id="tight-bounds" transform="matrix(1,0,0,1,0.2400000000000091,81.39999999999995)"><svg viewBox="0 0 395.52 247.2" height="247.2" width="395.52"><g><svg></svg></g><g><svg viewBox="0 0 395.52 247.2" height="247.2" width="395.52"><g transform="matrix(1,0,0,1,133.90959214586255,47.215199999999996)"><svg viewBox="0 0 127.7008157082749 152.7696" height="152.7696" width="127.7008157082749"><g><svg viewBox="0 0 127.7008157082749 152.7696" height="152.7696" width="127.7008157082749"><g><svg viewBox="0 0 127.7008157082749 152.7696" height="152.7696" width="127.7008157082749"><g><svg viewBox="0 0 127.7008157082749 152.7696" height="152.7696" width="127.7008157082749"><g id="textblocktransform"><svg viewBox="0 0 127.7008157082749 152.7696" height="152.7696" width="127.7008157082749" id="textblock"><g><svg viewBox="0 0 127.7008157082749 152.7696" height="152.7696" width="127.7008157082749"><g transform="matrix(1,0,0,1,0,0)"><svg width="127.7008157082749" viewBox="1.5 -35.25 29.8 35.65" height="152.7696" data-palette-color="#ffffff"><path d="M26.8-10.65L27.35-22.8 20.75-30.2 15.2-31.55 11.5-30.55 11.2-4.65 20.75-3.7 26.8-10.65ZM21.3-34.3L31.3-23.65 29.7-7.6 21.7 0.4 9-0.5 1.5-0.35 1.65-1.9 7.05-3.15 7.25-31.85 3.75-33.2 3.95-35 8.9-35.25 21.3-34.3Z" opacity="1" transform="matrix(1,0,0,1,0,0)" fill="#ffffff" class="wordmark-text-0" data-fill-palette-color="primary" id="text-0"></path></svg></g></svg></g></svg></g></svg></g><g></g></svg></g></svg></g></svg></g><g><path d="M105.196 11.15A63.85 63.85 0 0 1 290.324 11.15L276.547 11.15A50.073 50.073 0 0 0 118.973 11.15L105.196 11.15M105.196 236.05A63.85 63.85 0 0 0 290.324 236.05L276.547 236.05A50.073 50.073 0 0 1 118.973 236.05L105.196 236.05" fill="#ffffff" stroke="transparent" data-fill-palette-color="tertiary"></path></g></svg></g><defs></defs></svg><rect width="395.52" height="247.2" fill="none" stroke="none" visibility="hidden"></rect></g></svg></g></svg>