<?xml version="1.0" standalone="no"?>
<!DOCTYPE svg PUBLIC "-//W3C//DTD SVG 20010904//EN"
 "http://www.w3.org/TR/2001/REC-SVG-20010904/DTD/svg10.dtd">
<svg version="1.0" xmlns="http://www.w3.org/2000/svg"
 width="1500.000000pt" height="1500.000000pt" viewBox="0 0 1500.000000 1500.000000"
 preserveAspectRatio="xMidYMid meet">

<g transform="translate(0.000000,1500.000000) scale(0.100000,-0.100000)"
fill="#000000" stroke="none">
<path d="M0 7500 l0 -7500 7500 0 7500 0 0 7500 0 7500 -7500 0 -7500 0 0
-7500z m5597 2983 c-3 -21 -9 -84 -13 -140 l-7 -103 -170 0 -170 0 7 132 c4
72 9 135 12 140 3 4 82 8 176 8 l171 0 -6 -37z m4147 29 c3 -5 8 -68 12 -140
l7 -132 -170 0 -170 0 -7 98 c-4 53 -9 116 -12 140 l-6 42 170 0 c94 0 173 -4
176 -8z m-2354 -1197 c333 -25 610 -48 617 -50 15 -5 1047 -1104 1050 -1119 2
-6 -35 -386 -81 -845 l-83 -833 -419 -418 -419 -417 -660 48 c-698 51 -646 49
-1248 34 l-208 -6 7 78 c3 43 10 82 14 86 5 5 130 38 280 72 150 35 273 65
275 67 3 3 25 2571 25 2879 l0 116 -181 69 -181 69 7 90 c4 50 10 93 14 97 9
10 479 37 541 32 25 -3 317 -25 650 -49z m-1806 -4657 c4 -57 10 -120 13 -140
l6 -38 -171 0 c-94 0 -173 4 -176 8 -3 5 -8 68 -12 140 l-7 132 170 0 170 0 7
-102z m4172 -30 c-4 -72 -9 -135 -12 -140 -3 -4 -82 -8 -176 -8 l-170 0 6 43
c3 23 8 86 12 140 l7 97 170 0 170 0 -7 -132z"/>
<path d="M7176 8920 c-98 -27 -180 -50 -181 -52 -6 -5 -36 -2690 -31 -2696 5
-4 929 -101 976 -102 9 0 155 160 325 356 270 310 311 361 317 397 4 23 19
311 34 640 l26 598 -74 82 c-601 675 -612 687 -648 697 -120 32 -535 130 -548
129 -10 0 -97 -22 -196 -49z"/>
</g>
</svg>
